(double)
****************************************************************************

TITLE: The Storm Warriors (Fung wan II original title)

GENRE: Action/Adventure/Fantasy
IMDB RATE: 4.7/10 485 votes
IMDB URL: http://www.imdb.com/title/tt1186371
RELEASE DATE: 10 December 2009 (Malaysia)

****************************************************************************
****************************************************************************
General
Complete name                    : D:\The.Storm.Warriors.2009.BDrip.720.AC3.x264.[GREY-SHADOW].mkv
Format                           : Matroska
File size                        : 1.54 GiB
Duration                         : 1h 50mn
Overall bit rate                 : 1 996 Kbps
Encoded date                     : UTC 2010-08-19 17:32:14
Writing application              : mkvmerge v4.1.0 ('Boiling Point') built on Jul  1 2010 14:37:28
Writing library                  : libebml v1.0.0 + libmatroska v1.0.0

Video
ID                               : 1
Format                           : AVC
Format/Info                      : Advanced Video Codec
Format profile                   : High@L4.1
Format settings, CABAC           : Yes
Format settings, ReFrames        : 4 frames
Muxing mode                      : Container profile=Unknown@4.1
Codec ID                         : V_MPEG4/ISO/AVC
Duration                         : 1h 50mn
Bit rate                         : 1 545 Kbps
Width                            : 1 280 pixels
Height                           : 544 pixels
Display aspect ratio             : 2.35:1
Frame rate                       : 24.000 fps
Color space                      : YUV
Chroma subsampling               : 4:2:0
Bit depth                        : 8 bits
Scan type                        : Progressive
Bits/(Pixel*Frame)               : 0.092
Stream size                      : 1.16 GiB (76%)
Title                            : AVC MPEG4 Video
Writing library                  : x264 core 98 r1649 20cbe10
Language                         : Chinese

Audio
ID                               : 2
Format                           : AC-3
Format/Info                      : Audio Coding 3
Mode extension                   : CM (complete main)
Codec ID                         : A_AC3
Duration                         : 1h 50mn
Bit rate mode                    : Constant
Bit rate                         : 448 Kbps
Channel(s)                       : 6 channels
Channel positions                : Front: L C R, Side: L R, LFE
Sampling rate                    : 48.0 KHz
Bit depth                        : 16 bits
Stream size                      : 353 MiB (22%)
Title                            : AC3 5.1 Audio
Language                         : Chinese

Text
ID                               : 3
Format                           : UTF-8
Codec ID                         : S_TEXT/UTF8
Codec ID/Info                    : UTF-8 Plain Text
Title                            : English Subtitle PGS to srt edited by GREY-SHADOW


SUBTITLES: English (Selectable)
SOURCE: BD Disc
ENCODER: GREY-SHADOW

****************************************************************************
SCREENSHOTS

****************************************************************************
For 4 & 8 GB copies of my stuff and AVCHD please visit http://leech2seed.info, 
open registration at present, come and say hi to GREY-SHADOW, whitestag13, 
maverickbbs and many others.

Shouts to my mate westy & Torrent-Force, "WE WILL RISE AGAIN", Rip, mami & kawli

All the great sites out there, 1337x, Kidzcorner, Demonoid, Darkside, extratorrents, 
kickasstorrents, ahashare, reputation-resource, TPB, ipt, llywot, and all the 
great peeps who care and share.